<svg width="27" height="19" viewBox="0 0 27 19" fill="none" xmlns="http://www.w3.org/2000/svg">
<path d="M4.6684 9.6C4.6684 9.056 4.8684 8.584 5.2684 8.184C5.6684 7.784 6.1404 7.584 6.6844 7.584C7.2284 7.584 7.7004 7.784 8.1004 8.184C8.5004 8.584 8.7004 9.056 8.7004 9.6C8.7004 10.144 8.5004 10.616 8.1004 11.016C7.7004 11.416 7.2284 11.616 6.6844 11.616C6.1404 11.616 5.6684 11.416 5.2684 11.016C4.8684 10.616 4.6684 10.144 4.6684 9.6ZM0.492402 7.728C0.492402 5.552 1.0364 3.864 2.1244 2.664C3.2284 1.464 4.7484 0.863999 6.6844 0.863999C8.6204 0.863999 10.1324 1.464 11.2204 2.664C12.3244 3.864 12.8764 5.552 12.8764 7.728V11.472C12.8764 13.712 12.3244 15.416 11.2204 16.584C10.1324 17.752 8.6204 18.336 6.6844 18.336C4.7484 18.336 3.2284 17.752 2.1244 16.584C1.0364 15.416 0.492402 13.712 0.492402 11.472V7.728ZM6.6844 15.456C7.2604 15.456 7.7404 15.368 8.1244 15.192C8.5084 15 8.8204 14.736 9.0604 14.4C9.3004 14.064 9.4684 13.664 9.5644 13.2C9.6604 12.736 9.7084 12.224 9.7084 11.664V7.536C9.7084 7.008 9.6524 6.512 9.5404 6.048C9.4284 5.584 9.2524 5.184 9.0124 4.848C8.7724 4.512 8.4604 4.248 8.0764 4.056C7.6924 3.848 7.2284 3.744 6.6844 3.744C6.1404 3.744 5.6764 3.848 5.2924 4.056C4.9084 4.248 4.5964 4.512 4.3564 4.848C4.1164 5.184 3.9404 5.584 3.8284 6.048C3.7164 6.512 3.6604 7.008 3.6604 7.536V11.664C3.6604 12.224 3.7084 12.736 3.8044 13.2C3.9004 13.664 4.0684 14.064 4.3084 14.4C4.5484 14.736 4.8604 15 5.2444 15.192C5.6284 15.368 6.1084 15.456 6.6844 15.456ZM26.3323 14.976V18H14.5243V14.688C14.5243 13.808 14.6523 13.056 14.9083 12.432C15.1803 11.808 15.5563 11.28 16.0363 10.848C16.5323 10.416 17.1243 10.064 17.8123 9.792C18.5003 9.504 19.2763 9.264 20.1403 9.072C20.7803 8.928 21.3003 8.768 21.7003 8.592C22.1163 8.4 22.4443 8.192 22.6843 7.968C22.9243 7.728 23.0843 7.472 23.1643 7.2C23.2603 6.912 23.3083 6.592 23.3083 6.24C23.3083 5.568 23.0603 5.008 22.5643 4.56C22.0843 4.112 21.4123 3.888 20.5483 3.888C19.6363 3.888 18.9083 4.168 18.3643 4.728C17.8203 5.272 17.5483 6.032 17.5483 7.008V8.064H14.3803V6.72C14.3803 5.936 14.5163 5.192 14.7883 4.488C15.0763 3.768 15.4763 3.144 15.9883 2.616C16.5163 2.072 17.1563 1.648 17.9083 1.344C18.6603 1.024 19.5083 0.863999 20.4523 0.863999C21.4603 0.863999 22.3403 1.016 23.0923 1.32C23.8443 1.608 24.4683 1.992 24.9643 2.472C25.4763 2.952 25.8523 3.512 26.0923 4.152C26.3483 4.776 26.4763 5.424 26.4763 6.096V6.384C26.4763 7.792 26.0763 8.96 25.2763 9.888C24.4923 10.816 23.2043 11.488 21.4123 11.904C20.6603 12.08 20.0363 12.264 19.5403 12.456C19.0603 12.632 18.6843 12.832 18.4123 13.056C18.1403 13.28 17.9483 13.528 17.8363 13.8C17.7403 14.056 17.6923 14.352 17.6923 14.688V14.976H26.3323Z" fill="#495567"/>
</svg>
