<svg width="27" height="19" viewBox="0 0 27 19" fill="none" xmlns="http://www.w3.org/2000/svg">
<path d="M4.6684 9.6C4.6684 9.056 4.8684 8.584 5.2684 8.184C5.6684 7.784 6.1404 7.584 6.6844 7.584C7.2284 7.584 7.7004 7.784 8.1004 8.184C8.5004 8.584 8.7004 9.056 8.7004 9.6C8.7004 10.144 8.5004 10.616 8.1004 11.016C7.7004 11.416 7.2284 11.616 6.6844 11.616C6.1404 11.616 5.6684 11.416 5.2684 11.016C4.8684 10.616 4.6684 10.144 4.6684 9.6ZM0.492402 7.728C0.492402 5.552 1.0364 3.864 2.1244 2.664C3.2284 1.464 4.7484 0.863999 6.6844 0.863999C8.6204 0.863999 10.1324 1.464 11.2204 2.664C12.3244 3.864 12.8764 5.552 12.8764 7.728V11.472C12.8764 13.712 12.3244 15.416 11.2204 16.584C10.1324 17.752 8.6204 18.336 6.6844 18.336C4.7484 18.336 3.2284 17.752 2.1244 16.584C1.0364 15.416 0.492402 13.712 0.492402 11.472V7.728ZM6.6844 15.456C7.2604 15.456 7.7404 15.368 8.1244 15.192C8.5084 15 8.8204 14.736 9.0604 14.4C9.3004 14.064 9.4684 13.664 9.5644 13.2C9.6604 12.736 9.7084 12.224 9.7084 11.664V7.536C9.7084 7.008 9.6524 6.512 9.5404 6.048C9.4284 5.584 9.2524 5.184 9.0124 4.848C8.7724 4.512 8.4604 4.248 8.0764 4.056C7.6924 3.848 7.2284 3.744 6.6844 3.744C6.1404 3.744 5.6764 3.848 5.2924 4.056C4.9084 4.248 4.5964 4.512 4.3564 4.848C4.1164 5.184 3.9404 5.584 3.8284 6.048C3.7164 6.512 3.6604 7.008 3.6604 7.536V11.664C3.6604 12.224 3.7084 12.736 3.8044 13.2C3.9004 13.664 4.0684 14.064 4.3084 14.4C4.5484 14.736 4.8604 15 5.2444 15.192C5.6284 15.368 6.1084 15.456 6.6844 15.456ZM18.6763 10.8V5.808L22.8523 4.656V4.224H14.5003V1.2H25.4443V6.48L20.9803 7.776V8.208H21.5563C22.1483 8.208 22.7323 8.304 23.3083 8.496C23.8843 8.672 24.3883 8.952 24.8203 9.336C25.2683 9.72 25.6283 10.2 25.9003 10.776C26.1723 11.336 26.3083 12 26.3083 12.768V13.056C26.3083 13.808 26.1803 14.504 25.9243 15.144C25.6843 15.784 25.3163 16.344 24.8203 16.824C24.3403 17.288 23.7403 17.656 23.0203 17.928C22.3003 18.2 21.4763 18.336 20.5483 18.336C19.6043 18.336 18.7483 18.184 17.9803 17.88C17.2123 17.576 16.5563 17.16 16.0123 16.632C15.4843 16.104 15.0763 15.496 14.7883 14.808C14.5003 14.12 14.3563 13.392 14.3563 12.624V11.616H17.5243V12.48C17.5243 13.248 17.7723 13.912 18.2683 14.472C18.7643 15.032 19.5083 15.312 20.5003 15.312C21.3483 15.312 21.9963 15.096 22.4443 14.664C22.9083 14.232 23.1403 13.664 23.1403 12.96C23.1403 12.208 22.8923 11.664 22.3963 11.328C21.9163 10.976 21.3003 10.8 20.5483 10.8H18.6763Z" fill="#495567"/>
</svg>
